<svg version="1.1"
	 xmlns="http://www.w3.org/2000/svg" xmlns:xlink="http://www.w3.org/1999/xlink" xmlns:a="http://ns.adobe.com/AdobeSVGViewerExtensions/3.0/"
	 x="0px" y="0px" width="774.8px" height="988.5px" viewBox="0 0 774.8 988.5"
	 style="overflow:scroll;enable-background:new 0 0 774.8 988.5;" xml:space="preserve">
<style type="text/css">
	.st0{fill:none;}
	.st1{fill:#f9a972;}
	.st2{fill:#FFFFFF;}
</style>
<defs>
</defs>
<g>
	<polygon class="st0" points="116.9,570.9 367.6,0 31.5,0 31.5,988.5 168.3,988.5 324.3,559.5 	"/>
	<polygon class="st0" points="680.7,0 484.8,343.7 732.9,323.9 226.9,988.5 774.8,988.5 774.8,0 	"/>
	<polygon class="st1" points="484.8,343.7 680.7,0 367.6,0 116.9,570.9 324.3,559.5 168.3,988.5 226.9,988.5 732.9,323.9 	"/>
</g>
<g>
	<polygon class="st0" points="631.9,0 453.3,315.2 701.4,295.4 173.7,988.5 743.3,988.5 743.3,0 	"/>
	<polygon class="st0" points="85.4,542.4 324.2,0 0,0 0,988.5 126.5,988.5 292.8,531 	"/>
	<polygon class="st2" points="453.3,315.2 631.9,0 324.2,0 85.4,542.4 292.8,531 126.5,988.5 173.7,988.5 701.4,295.4 	"/>
</g>
</svg>
